<svg width="67" height="59" viewBox="0 0 67 59" fill="none" xmlns="http://www.w3.org/2000/svg">
<path d="M11.2136 43.859C12.0947 44.637 12.5358 45.7204 12.4169 46.8142C12.1504 49.2653 11.5366 51.8162 10.7484 54.1859C16.5895 52.9971 20.1568 51.618 21.7784 50.8944C22.6989 50.4837 23.7591 50.3867 24.7558 50.622C27.5105 51.2724 30.4463 51.625 33.5 51.625C50.2316 51.625 62.8125 41.2722 62.8125 29.5C62.8125 17.7278 50.2316 7.375 33.5 7.375C16.7684 7.375 4.1875 17.7278 4.1875 29.5C4.1875 34.9136 6.77246 39.937 11.2136 43.859ZM9.14925 58.2585C9.12104 58.2635 9.0928 58.2684 9.06452 58.2733C8.67999 58.3401 8.28799 58.4057 7.88849 58.4702C7.32811 58.5606 6.75294 58.6485 6.16283 58.7336C5.32945 58.8537 4.69153 58.086 5.02072 57.4012C5.2358 56.9538 5.44782 56.4848 5.65439 55.9986C5.78561 55.6898 5.91463 55.3739 6.04083 55.0522C6.04627 55.0383 6.0517 55.0245 6.05713 55.0106C7.09456 52.3566 7.93935 49.306 8.24848 46.4627C3.11157 41.9264 0 35.9932 0 29.5C0 15.2442 14.9985 3.6875 33.5 3.6875C52.0015 3.6875 67 15.2442 67 29.5C67 43.7559 52.0015 55.3125 33.5 55.3125C30.0798 55.3125 26.7794 54.9176 23.6713 54.1837C21.496 55.1544 16.81 56.9214 9.14925 58.2585Z" fill="white"/>
</svg>
