<svg width="57" height="56" viewBox="0 0 57 56" fill="none" xmlns="http://www.w3.org/2000/svg">
<g id="exclamation-triangle-fill">
<path id="warning-fill" d="M31.4353 5.48248C29.8817 2.83917 26.1291 2.83917 24.5755 5.48248L0.57619 46.3158C-1.02342 49.0375 0.896975 52.5 4.00607 52.5H52.0047C55.1138 52.5 57.0342 49.0375 55.4346 46.3158L31.4353 5.48248ZM28 17.5C29.8739 17.5 31.3382 19.118 31.1517 20.9826L29.9241 33.2587C29.8253 34.2472 28.9935 35 28 35C27.0065 35 26.1747 34.2472 26.0759 33.2587L24.8483 20.9826C24.6618 19.118 26.1261 17.5 28 17.5ZM28.0054 38.5C29.9384 38.5 31.5054 40.067 31.5054 42C31.5054 43.933 29.9384 45.5 28.0054 45.5C26.0724 45.5 24.5054 43.933 24.5054 42C24.5054 40.067 26.0724 38.5 28.0054 38.5Z" fill="#CC2936"/>
</g>
</svg>
