<svg width="54" height="54" viewBox="0 0 54 54" fill="none" xmlns="http://www.w3.org/2000/svg">
<path d="M43.3808 0.494257C42.7218 -0.164752 41.6533 -0.164752 40.9943 0.494257L35.4375 6.05104L47.949 18.5625L53.5058 13.0057C54.1648 12.3467 54.1648 11.2783 53.5058 10.6193L43.3808 0.494257Z" fill="#CC2936"/>
<path d="M45.5625 20.949L33.051 8.43752L11.1136 30.375H11.8125C12.7445 30.375 13.5 31.1305 13.5 32.0625V33.75H15.1875C16.1195 33.75 16.875 34.5055 16.875 35.4375V37.125H18.5625C19.4945 37.125 20.25 37.8805 20.25 38.8125V40.5H21.9375C22.8695 40.5 23.625 41.2555 23.625 42.1875V42.8865L45.5625 20.949Z" fill="#CC2936"/>
<path d="M20.3568 46.1547C20.2878 45.9704 20.25 45.7709 20.25 45.5625V43.875H18.5625C17.6305 43.875 16.875 43.1195 16.875 42.1875V40.5H15.1875C14.2555 40.5 13.5 39.7445 13.5 38.8125V37.125H11.8125C10.8805 37.125 10.125 36.3695 10.125 35.4375V33.75H8.4375C8.22915 33.75 8.02962 33.7122 7.84537 33.6432L7.24431 34.2443C7.08271 34.4059 6.95562 34.5986 6.87075 34.8108L0.120745 51.6858C-0.129962 52.3125 0.0169759 53.0284 0.494307 53.5057C0.971637 53.9831 1.68751 54.13 2.31427 53.8793L19.1893 47.1293C19.4015 47.0444 19.5942 46.9173 19.7558 46.7557L20.3568 46.1547Z" fill="#CC2936"/>
</svg>
