<svg width="30" height="26" viewBox="0 0 30 26" fill="none" xmlns="http://www.w3.org/2000/svg">
<path fill-rule="evenodd" clip-rule="evenodd" d="M7.93822 8.86921C7.65322 8.86921 7.42374 8.63053 7.4604 8.34789C7.83972 5.42418 10.2923 3.25 14.6701 3.25C18.8888 3.25 21.7333 5.46107 21.7333 8.47488C21.7333 10.6578 20.4868 12.1929 18.3775 13.3054C16.316 14.3758 15.7248 15.1222 15.7248 16.5727V16.9318C15.7248 17.208 15.5009 17.4318 15.2248 17.4318H12.9098C12.6365 17.4318 12.4138 17.2123 12.4099 16.9389L12.4009 16.3052C12.321 14.3194 13.2958 13.0519 15.4851 11.8971C17.4187 10.869 18.1058 10.0522 18.1058 8.60163C18.1058 7.01022 16.6836 5.84132 14.4943 5.84132C12.4763 5.84132 11.114 6.82012 10.787 8.41083C10.7344 8.66666 10.5214 8.86921 10.2602 8.86921H7.93822ZM14.0551 22.75C15.2217 22.75 16.1083 21.9804 16.1083 20.9773C16.1083 19.9741 15.2217 19.2045 14.0551 19.2045C12.9196 19.2045 12.0174 19.9741 12.0174 20.9773C12.0174 21.9804 12.9196 22.75 14.0551 22.75Z" fill="black"/>
</svg>
