<svg width="48" height="48" viewBox="0 0 48 48" fill="none" xmlns="http://www.w3.org/2000/svg">
<circle cx="24" cy="24" r="24" fill="#D9D9D9"/>
<path d="M24.5 21.5C27.3995 21.5 29.75 19.1495 29.75 16.25C29.75 13.3505 27.3995 11 24.5 11C21.6005 11 19.25 13.3505 19.25 16.25C19.25 19.1495 21.6005 21.5 24.5 21.5ZM28 16.25C28 18.183 26.433 19.75 24.5 19.75C22.567 19.75 21 18.183 21 16.25C21 14.317 22.567 12.75 24.5 12.75C26.433 12.75 28 14.317 28 16.25Z" fill="black"/>
<path d="M35 30.25C35 32 33.25 32 33.25 32H15.75C15.75 32 14 32 14 30.25C14 28.5 15.75 23.25 24.5 23.25C33.25 23.25 35 28.5 35 30.25ZM33.25 30.2439C33.2475 29.812 32.9809 28.5183 31.7938 27.3312C30.6523 26.1897 28.5059 25 24.5 25C20.494 25 18.3476 26.1897 17.2062 27.3312C16.0191 28.5183 15.7525 29.812 15.75 30.2439H33.25Z" fill="black"/>
</svg>
