<svg width="403" height="403" viewBox="0 0 403 403" fill="none" xmlns="http://www.w3.org/2000/svg">
<circle cx="201.5" cy="201.5" r="201.5" fill="#D9D9D9"/>
<path d="M205.698 180.511C230.042 180.511 249.776 160.776 249.776 136.433C249.776 112.089 230.042 92.3545 205.698 92.3545C181.354 92.3545 161.62 112.089 161.62 136.433C161.62 160.776 181.354 180.511 205.698 180.511ZM235.083 136.433C235.083 152.662 221.927 165.818 205.698 165.818C189.469 165.818 176.313 152.662 176.313 136.433C176.313 120.203 189.469 107.047 205.698 107.047C221.927 107.047 235.083 120.203 235.083 136.433Z" fill="black"/>
<path d="M293.854 253.974C293.854 268.667 279.162 268.667 279.162 268.667H132.234C132.234 268.667 117.542 268.667 117.542 253.974C117.542 239.282 132.234 195.203 205.698 195.203C279.162 195.203 293.854 239.282 293.854 253.974ZM279.161 253.923C279.14 250.297 276.902 239.435 266.935 229.468C257.352 219.885 239.331 209.896 205.698 209.896C172.065 209.896 154.044 219.885 144.46 229.468C134.494 239.435 132.255 250.297 132.234 253.923H279.161Z" fill="black"/>
</svg>
